<svg width="97" height="77" viewBox="0 0 97 77" fill="none" xmlns="http://www.w3.org/2000/svg">
<path d="M72.6406 0.96875L77 0.96875C82.625 0.96875 87.3125 3.21875 91.0625 7.71875C94.7187 12.3125 96.5469 18.9688 96.5469 27.6875L96.4062 28.8125V29.9375C96.4062 40.9062 92.6562 51.3594 85.1562 61.2969C77.6562 71.3281 70.8125 76.3438 64.625 76.3438H62.9375C60.0312 76.3438 58.5781 74.3281 58.5781 70.2969L67.2969 58.625C71.0469 53.6563 72.9219 48.7813 72.9219 44C72.9219 41.2813 70.1562 37.3906 64.625 32.3281C59 27.3594 56.1875 22.8125 56.1875 18.6875V16.7188C56.1875 12.2188 58.0625 8.46875 61.8125 5.46875C65.4687 2.46875 69.0781 0.96875 72.6406 0.96875ZM41.2812 26.7031V28.8125C41.2812 40.3438 37.5312 51.125 30.0312 61.1563C22.4375 71.2813 15.3125 76.3438 8.65625 76.3438C5.1875 76.3438 3.45312 74.5625 3.45312 71C3.45312 70.3438 5.84375 66.875 10.625 60.5938C15.3125 54.3125 17.6562 48.5 17.6562 43.1563C17.6562 41.0938 14.8906 37.5313 9.35937 32.4688C3.73437 27.5 0.921875 22.9063 0.921875 18.6875V16.7188C0.921875 12.3125 2.79687 8.60938 6.54687 5.60938C10.2031 2.60938 13.8594 1.10938 17.5156 1.10938H21.875C27.4062 1.10938 32.0469 3.35938 35.7969 7.85938C39.4531 12.3594 41.2812 18.6406 41.2812 26.7031Z" fill="black" fill-opacity="0.1"/>
</svg>
