<svg width="97" height="77" viewBox="0 0 97 77" fill="none" xmlns="http://www.w3.org/2000/svg">
<path d="M24.8281 76.3438H20.4688C14.8438 76.3438 10.1562 74.0938 6.40625 69.5938C2.75 65 0.921875 58.3438 0.921875 49.625L1.0625 48.5V47.375C1.0625 36.4062 4.8125 25.9531 12.3125 16.0156C19.8125 5.98438 26.6562 0.96875 32.8438 0.96875H34.5312C37.4375 0.96875 38.8906 2.98438 38.8906 7.01562L30.1719 18.6875C26.4219 23.6562 24.5469 28.5312 24.5469 33.3125C24.5469 36.0312 27.3125 39.9219 32.8438 44.9844C38.4688 49.9531 41.2812 54.5 41.2812 58.625V60.5938C41.2812 65.0938 39.4062 68.8438 35.6562 71.8438C32 74.8438 28.3906 76.3438 24.8281 76.3438ZM56.1875 50.6094V48.5C56.1875 36.9688 59.9375 26.1875 67.4375 16.1562C75.0312 6.03125 82.1562 0.96875 88.8125 0.96875C92.2812 0.96875 94.0156 2.75 94.0156 6.3125C94.0156 6.96875 91.625 10.4375 86.8438 16.7188C82.1562 23 79.8125 28.8125 79.8125 34.1562C79.8125 36.2188 82.5781 39.7812 88.1094 44.8438C93.7344 49.8125 96.5469 54.4062 96.5469 58.625V60.5938C96.5469 65 94.6719 68.7031 90.9219 71.7031C87.2656 74.7031 83.6094 76.2031 79.9531 76.2031H75.5938C70.0625 76.2031 65.4219 73.9531 61.6719 69.4531C58.0156 64.9531 56.1875 58.6719 56.1875 50.6094Z" fill="black" fill-opacity="0.1"/>
</svg>
